<mxfile host="app.diagrams.net" modified="2023-03-15T09:24:53.870Z" agent="5.0 (Windows NT 10.0; Win64; x64) AppleWebKit/537.36 (KHTML, like Gecko) Chrome/111.0.0.0 Safari/537.36" version="20.6.0" etag="1DMDcWuqUrAk1wm2N7Aa" type="github">
  <diagram id="M7bCBFGMLiMVhMyd8mCZ" name="Page-1">
    <mxGraphModel dx="1102" dy="614" grid="1" gridSize="10" guides="1" tooltips="1" connect="1" arrows="1" fold="1" page="1" pageScale="1" pageWidth="850" pageHeight="1100" math="0" shadow="0">
      <root>
        <mxCell id="0" />
        <mxCell id="1" parent="0" />
        <mxCell id="DpSQqndvJbodMhIylwpq-3" value="" style="edgeStyle=none;rounded=0;orthogonalLoop=1;jettySize=auto;html=1;fontSize=24;" edge="1" parent="1" source="DpSQqndvJbodMhIylwpq-1" target="DpSQqndvJbodMhIylwpq-2">
          <mxGeometry relative="1" as="geometry" />
        </mxCell>
        <mxCell id="DpSQqndvJbodMhIylwpq-1" value="&lt;font style=&quot;font-size: 24px;&quot;&gt;ui&lt;/font&gt;" style="rounded=0;whiteSpace=wrap;html=1;" vertex="1" parent="1">
          <mxGeometry x="365" y="10" width="120" height="60" as="geometry" />
        </mxCell>
        <mxCell id="DpSQqndvJbodMhIylwpq-5" value="" style="edgeStyle=orthogonalEdgeStyle;rounded=0;orthogonalLoop=1;jettySize=auto;html=1;fontSize=24;" edge="1" parent="1" source="DpSQqndvJbodMhIylwpq-2" target="DpSQqndvJbodMhIylwpq-4">
          <mxGeometry relative="1" as="geometry" />
        </mxCell>
        <mxCell id="DpSQqndvJbodMhIylwpq-7" value="" style="edgeStyle=orthogonalEdgeStyle;rounded=0;orthogonalLoop=1;jettySize=auto;html=1;fontSize=24;" edge="1" parent="1" source="DpSQqndvJbodMhIylwpq-2" target="DpSQqndvJbodMhIylwpq-6">
          <mxGeometry relative="1" as="geometry" />
        </mxCell>
        <mxCell id="DpSQqndvJbodMhIylwpq-9" value="" style="edgeStyle=orthogonalEdgeStyle;rounded=0;orthogonalLoop=1;jettySize=auto;html=1;fontSize=24;" edge="1" parent="1" source="DpSQqndvJbodMhIylwpq-2" target="DpSQqndvJbodMhIylwpq-8">
          <mxGeometry relative="1" as="geometry" />
        </mxCell>
        <mxCell id="DpSQqndvJbodMhIylwpq-2" value="&lt;font style=&quot;font-size: 24px;&quot;&gt;server&lt;/font&gt;" style="rounded=0;whiteSpace=wrap;html=1;" vertex="1" parent="1">
          <mxGeometry x="365" y="150" width="120" height="60" as="geometry" />
        </mxCell>
        <mxCell id="DpSQqndvJbodMhIylwpq-19" value="" style="edgeStyle=none;rounded=0;orthogonalLoop=1;jettySize=auto;html=1;fontSize=13;" edge="1" parent="1" source="DpSQqndvJbodMhIylwpq-4" target="DpSQqndvJbodMhIylwpq-18">
          <mxGeometry relative="1" as="geometry" />
        </mxCell>
        <mxCell id="DpSQqndvJbodMhIylwpq-21" value="" style="edgeStyle=none;rounded=0;orthogonalLoop=1;jettySize=auto;html=1;fontSize=13;" edge="1" parent="1" source="DpSQqndvJbodMhIylwpq-4" target="DpSQqndvJbodMhIylwpq-20">
          <mxGeometry relative="1" as="geometry" />
        </mxCell>
        <mxCell id="DpSQqndvJbodMhIylwpq-4" value="&lt;font style=&quot;font-size: 24px;&quot;&gt;scraper&lt;/font&gt;" style="rounded=0;whiteSpace=wrap;html=1;" vertex="1" parent="1">
          <mxGeometry x="200" y="260" width="120" height="60" as="geometry" />
        </mxCell>
        <mxCell id="DpSQqndvJbodMhIylwpq-17" style="edgeStyle=none;rounded=0;orthogonalLoop=1;jettySize=auto;html=1;entryX=0;entryY=0.25;entryDx=0;entryDy=0;fontSize=13;" edge="1" parent="1" source="DpSQqndvJbodMhIylwpq-6" target="DpSQqndvJbodMhIylwpq-16">
          <mxGeometry relative="1" as="geometry" />
        </mxCell>
        <mxCell id="DpSQqndvJbodMhIylwpq-6" value="&lt;span style=&quot;font-size: 24px;&quot;&gt;DB&lt;/span&gt;" style="rounded=0;whiteSpace=wrap;html=1;" vertex="1" parent="1">
          <mxGeometry x="560" y="260" width="120" height="60" as="geometry" />
        </mxCell>
        <mxCell id="DpSQqndvJbodMhIylwpq-10" style="edgeStyle=none;rounded=0;orthogonalLoop=1;jettySize=auto;html=1;fontSize=13;" edge="1" parent="1" source="DpSQqndvJbodMhIylwpq-8" target="DpSQqndvJbodMhIylwpq-6">
          <mxGeometry relative="1" as="geometry" />
        </mxCell>
        <mxCell id="DpSQqndvJbodMhIylwpq-8" value="&lt;font style=&quot;font-size: 13px;&quot;&gt;rating-upates-system&lt;/font&gt;" style="rounded=0;whiteSpace=wrap;html=1;" vertex="1" parent="1">
          <mxGeometry x="365" y="420" width="120" height="60" as="geometry" />
        </mxCell>
        <mxCell id="DpSQqndvJbodMhIylwpq-11" value="Text" style="text;html=1;align=center;verticalAlign=middle;resizable=0;points=[];autosize=1;strokeColor=none;fillColor=none;fontSize=13;" vertex="1" parent="1">
          <mxGeometry x="280" y="20" width="40" height="20" as="geometry" />
        </mxCell>
        <mxCell id="DpSQqndvJbodMhIylwpq-12" value="dicunery" style="swimlane;fontStyle=0;childLayout=stackLayout;horizontal=1;startSize=30;horizontalStack=0;resizeParent=1;resizeParentMax=0;resizeLast=0;collapsible=1;marginBottom=0;whiteSpace=wrap;html=1;fontSize=13;" vertex="1" parent="1">
          <mxGeometry x="690" y="230" width="140" height="120" as="geometry" />
        </mxCell>
        <mxCell id="DpSQqndvJbodMhIylwpq-13" value="word" style="text;strokeColor=none;fillColor=none;align=left;verticalAlign=middle;spacingLeft=4;spacingRight=4;overflow=hidden;points=[[0,0.5],[1,0.5]];portConstraint=eastwest;rotatable=0;whiteSpace=wrap;html=1;fontSize=13;" vertex="1" parent="DpSQqndvJbodMhIylwpq-12">
          <mxGeometry y="30" width="140" height="30" as="geometry" />
        </mxCell>
        <mxCell id="DpSQqndvJbodMhIylwpq-14" value="rating" style="text;strokeColor=none;fillColor=none;align=left;verticalAlign=middle;spacingLeft=4;spacingRight=4;overflow=hidden;points=[[0,0.5],[1,0.5]];portConstraint=eastwest;rotatable=0;whiteSpace=wrap;html=1;fontSize=13;" vertex="1" parent="DpSQqndvJbodMhIylwpq-12">
          <mxGeometry y="60" width="140" height="30" as="geometry" />
        </mxCell>
        <mxCell id="DpSQqndvJbodMhIylwpq-15" value="traslate" style="text;strokeColor=none;fillColor=none;align=left;verticalAlign=middle;spacingLeft=4;spacingRight=4;overflow=hidden;points=[[0,0.5],[1,0.5]];portConstraint=eastwest;rotatable=0;whiteSpace=wrap;html=1;fontSize=13;" vertex="1" parent="DpSQqndvJbodMhIylwpq-12">
          <mxGeometry y="90" width="140" height="30" as="geometry" />
        </mxCell>
        <mxCell id="DpSQqndvJbodMhIylwpq-16" value="order by rating" style="rounded=1;whiteSpace=wrap;html=1;fontSize=13;" vertex="1" parent="1">
          <mxGeometry x="700" y="370" width="120" height="60" as="geometry" />
        </mxCell>
        <mxCell id="DpSQqndvJbodMhIylwpq-18" value="cuold change to microservise" style="rhombus;whiteSpace=wrap;html=1;rounded=0;" vertex="1" parent="1">
          <mxGeometry x="10" y="240" width="120" height="110" as="geometry" />
        </mxCell>
        <mxCell id="DpSQqndvJbodMhIylwpq-20" value="&lt;font style=&quot;font-size: 17px;&quot;&gt;pupptter/on docker?&lt;/font&gt;" style="rounded=0;whiteSpace=wrap;html=1;" vertex="1" parent="1">
          <mxGeometry x="60" y="370" width="120" height="60" as="geometry" />
        </mxCell>
      </root>
    </mxGraphModel>
  </diagram>
</mxfile>
